<?xml version="1.0" encoding="UTF-8" standalone="yes"?>
<svg version="1.2" width="192" height="192" baseProfile="tiny-ps" xmlns="http://www.w3.org/2000/svg">
  <title>bimi-svg-tiny-12-ps</title>
  <path d="M0 0 C63.36 0 126.72 0 192 0 C192 63.36 192 126.72 192 192 C128.64 192 65.28 192 0 192 C0 128.64 0 65.28 0 0 Z " fill="#26292F" transform="translate(0,0)"/>
  <path d="M0 0 C1.02075623 0.00007553 2.04151245 0.00015106 3.09320068 0.00022888 C4.18811829 0.00539017 5.28303589 0.01055145 6.41113281 0.01586914 C8.10064056 0.01799156 8.10064056 0.01799156 9.82427979 0.02015686 C13.42096617 0.0257534 17.01759025 0.03830529 20.61425781 0.05102539 C23.053059 0.05604084 25.49186116 0.06060367 27.93066406 0.06469727 C33.90855264 0.0757217 39.88639467 0.09298399 45.86425781 0.11352539 C45.86425781 5.39352539 45.86425781 10.67352539 45.86425781 16.11352539 C44.4457251 16.13858154 43.02719238 16.1636377 41.56567383 16.18945312 C36.3232251 16.2833342 31.0809149 16.38360128 25.83862305 16.48583984 C23.56586945 16.52926204 21.29308169 16.57093155 19.02026367 16.61083984 C15.76112549 16.66836658 12.5021605 16.73211091 9.24316406 16.79711914 C8.22025772 16.81383163 7.19735138 16.83054413 6.14344788 16.84776306 C5.20254807 16.86770828 4.26164825 16.8876535 3.29223633 16.90820312 C2.45950699 16.92374741 1.62677765 16.93929169 0.76881409 16.95530701 C-1.14540803 16.90781153 -1.14540803 16.90781153 -2.13574219 18.11352539 C-2.17655002 20.11310903 -2.17828575 22.11397793 -2.13574219 24.11352539 C2.54999014 26.65594167 7.13678798 28.20626058 12.23925781 29.61352539 C17.26261552 31.01392188 22.16200424 32.53573165 27.02929688 34.4128418 C29.51342123 35.36140977 32.03454957 36.19480711 34.55175781 37.05102539 C40.22646379 39.14376917 43.98723204 41.30480541 47.17675781 46.55102539 C49.98059153 52.63739614 49.90055099 59.88634389 48.32128906 66.32836914 C45.74582031 72.831072 42.01234638 76.38670193 35.86425781 79.31665039 C32.09227087 80.81955144 28.78533945 81.23709242 24.72851562 81.22705078 C23.7077594 81.22697525 22.68700317 81.22689972 21.63531494 81.2268219 C20.54039734 81.22166061 19.44547974 81.21649933 18.31738281 81.21118164 C17.19104431 81.20976669 16.06470581 81.20835175 14.90423584 81.20689392 C11.30754946 81.20129738 7.71092537 81.18874549 4.11425781 81.17602539 C1.67545663 81.17100994 -0.76334553 81.16644712 -3.20214844 81.16235352 C-9.18003702 81.15132908 -15.15787904 81.13406679 -21.13574219 81.11352539 C-21.13574219 75.50352539 -21.13574219 69.89352539 -21.13574219 64.11352539 C-19.62633057 64.08846924 -18.11691895 64.06341309 -16.56176758 64.03759766 C-10.98387544 63.94372218 -5.40611366 63.84345375 0.17163086 63.74121094 C2.58989421 63.69778661 5.00818971 63.65611727 7.42651367 63.61621094 C10.89414177 63.55868936 14.36160684 63.49494352 17.82910156 63.42993164 C18.91762924 63.41321915 20.00615692 63.39650665 21.12767029 63.37928772 C22.12863235 63.3593425 23.12959442 63.33939728 24.16088867 63.31884766 C25.4899247 63.29553123 25.4899247 63.29553123 26.84580994 63.27174377 C28.86063322 63.33371214 28.86063322 63.33371214 29.86425781 62.11352539 C29.90518719 59.78055106 29.90667504 57.44647314 29.86425781 55.11352539 C21.84040107 51.72579698 13.70172856 49.17470505 5.34277344 46.75805664 C-4.83765795 43.74818997 -13.74643306 41.11343445 -19.44824219 31.55102539 C-22.19362011 25.6232502 -22.18458448 19.03357347 -20.51074219 12.77758789 C-18.19986781 7.39242529 -14.18499854 3.96359392 -9.13574219 1.11352539 C-6.03848631 0.14613723 -3.23577253 -0.00800934 0 0 Z " fill="#1666F8" transform="translate(44.1357421875,53.886474609375)"/>
  <path d="M0 0 C5.94 0 11.88 0 18 0 C18.49628906 1.36769531 18.99257812 2.73539063 19.50390625 4.14453125 C20.19003045 6.03388094 20.87623442 7.92320166 21.5625 9.8125 C21.92384033 10.80773682 22.28518066 11.80297363 22.6574707 12.82836914 C24.69050228 18.42131861 26.74084053 24.00724875 28.81396484 29.58544922 C32.06293337 38.33351037 35.12060114 47.12295929 38 56 C39.90081638 52.43931579 41.29210359 48.71592546 42.6875 44.9375 C42.94660156 44.24068115 43.20570313 43.5438623 43.47265625 42.82592773 C44.317381 40.55145606 45.15864184 38.2757189 46 36 C46.57933696 34.44007069 47.15876473 32.88017511 47.73828125 31.3203125 C51.5954874 20.91527416 55.33011214 10.47260682 59 0 C65.27 0 71.54 0 78 0 C71.36158546 18.79905003 64.49517835 37.4998936 57.45117188 56.15039062 C56.42223776 58.87669565 55.39816724 61.60477826 54.37695312 64.33398438 C54.10772034 65.05338196 53.83848755 65.77277954 53.56109619 66.51397705 C53.04576482 67.89168679 52.53088415 69.26956524 52.01654053 70.64764404 C50.71849791 74.11737538 49.37616728 77.55958179 48 81 C41.73 81 35.46 81 29 81 C24.72287842 70.54599317 20.54055716 60.12347875 17.10546875 49.359375 C15.8453866 45.5301501 14.4245671 41.7700046 13 38 C12.48852436 36.64223291 11.97721197 35.28440432 11.46606445 33.92651367 C11.20602127 33.23607468 10.94597809 32.54563568 10.67805481 31.83427429 C9.52178817 28.76001298 8.37037996 25.6839408 7.21948242 22.60766602 C6.61122402 20.98460664 6.00117644 19.36221674 5.3894043 17.74047852 C4.50108805 15.38467426 3.61906568 13.02659759 2.73828125 10.66796875 C2.3258593 9.58046577 2.3258593 9.58046577 1.90510559 8.47099304 C0.80382431 5.50590965 0 3.1905475 0 0 Z " fill="#1667F9" transform="translate(97,54)"/>
  <path d="M0 0 C6.27 0 12.54 0 19 0 C19 6.6 19 13.2 19 20 C12.73 20 6.46 20 0 20 C0 13.4 0 6.8 0 0 Z " fill="#1A61E6" transform="translate(126,148)"/>
  <path d="M0 0 C3.63 0 7.26 0 11 0 C11 3.63 11 7.26 11 11 C7.37 11 3.74 11 0 11 C0 7.37 0 3.74 0 0 Z " fill="#262930" transform="translate(130,152)"/>
  <path d="M0 0 C0.66 0.33 1.32 0.66 2 1 C-0.64 3.64 -3.28 6.28 -6 9 C-6 6 -6 6 -3.5625 3.375 C-2.716875 2.59125 -1.87125 1.8075 -1 1 C-0.67 0.67 -0.34 0.34 0 0 Z " fill="#1B5ED9" transform="translate(32,57)"/>
</svg>